<?xml version="1.0" standalone="no"?>
<!DOCTYPE svg PUBLIC "-//W3C//DTD SVG 20010904//EN"
        "http://www.w3.org/TR/2001/REC-SVG-20010904/DTD/svg10.dtd">
<svg version="1.0" xmlns="http://www.w3.org/2000/svg"
     width="120.000000pt" height="120.000000pt" viewBox="0 0 120.000000 120.000000"
     preserveAspectRatio="xMidYMid meet">
    <metadata>
        Created by potrace 1.11, written by Peter Selinger 2001-2013
    </metadata>
    <g transform="translate(0.000000,120.000000) scale(0.100000,-0.100000)"
       fill="#000000" stroke="none">
        <path d="M376 984 c-25 -25 -29 -59 -11 -88 16 -25 16 -29 -6 -91 -20 -56 -24
-62 -35 -47 -8 9 -14 29 -14 44 0 36 -29 52 -58 32 -17 -12 -19 -19 -12 -38 6
-18 3 -39 -11 -78 -12 -29 -22 -54 -24 -56 -7 -7 -55 92 -55 114 0 24 -33 54
-61 54 -47 0 -66 -79 -25 -105 14 -9 24 -24 24 -33 0 -9 3 -54 7 -100 6 -72 5
-86 -11 -103 -25 -28 -23 -87 4 -108 14 -10 23 -31 27 -60 6 -53 26 -86 64
-109 25 -15 68 -17 429 -16 358 0 403 2 426 17 36 24 54 55 61 107 4 26 15 51
27 62 27 23 28 80 4 107 -15 17 -17 32 -11 113 5 75 11 100 30 127 17 25 21
39 15 51 -5 10 -7 20 -4 22 2 3 -9 11 -26 18 -41 17 -83 -8 -79 -48 2 -28 -29
-102 -43 -102 -15 0 -41 75 -40 117 1 31 -3 45 -16 52 -26 14 -52 -5 -52 -37
0 -15 -7 -35 -14 -45 -13 -17 -16 -14 -34 35 -30 81 -30 82 -13 94 22 17 20
83 -4 100 -63 46 -141 -31 -93 -92 5 -7 -7 -45 -32 -100 l-41 -88 -20 33 c-11
19 -17 42 -14 58 6 35 -20 55 -52 40 -17 -8 -22 -16 -18 -36 2 -14 -4 -41 -14
-60 l-18 -33 -37 87 c-33 75 -36 89 -24 103 46 55 -46 137 -96 86z"/>
    </g>
</svg>
